<svg width="358" height="198" viewBox="0 0 358 198" fill="none" xmlns="http://www.w3.org/2000/svg">
<g opacity="0.5" filter="url(#filter0_d_4_7)">
<path d="M112.834 0.282281C112.697 0.45166 112.56 0.682632 112.56 0.790419C112.56 1.08298 110.81 2.14545 110.345 2.14545C110.126 2.14545 109.552 2.00687 109.032 1.82209C107.966 1.46794 106.735 1.39095 106.161 1.66811C105.832 1.82209 105.778 2.08386 105.914 2.80757C106.051 3.79305 105.258 6.11817 104.602 6.56472C104.41 6.6725 103.809 6.81109 103.207 6.87268C101.511 7.01126 99.0771 8.13532 98.1746 9.167C97.6276 9.78292 97.1626 10.0909 96.4515 10.3065C95.8772 10.4604 94.7559 11.0456 93.9354 11.5999C92.4038 12.6624 91.8294 12.7856 91.3645 12.185C91.009 11.7077 90.0244 11.5999 89.1492 11.9079C88.5201 12.1542 88.4654 12.262 88.5201 13.1243C88.6295 15.0953 87.3168 16.4195 84.8827 16.7891C83.3784 17.0046 82.7494 16.7737 82.7494 15.9884C82.7494 15.6496 82.6126 15.2339 82.4759 15.0645C81.9836 14.5563 80.2059 14.156 78.4008 14.156C76.2949 14.156 75.994 14.233 75.3376 14.9413C74.7633 15.6034 74.0249 15.7112 73.0676 15.3108C72.7668 15.1877 72.2198 15.0799 71.8369 15.0799C71.454 15.0645 70.825 14.9721 70.4421 14.8489C70.0592 14.7257 69.184 14.6333 68.5002 14.6179C67.0507 14.6179 66.0661 15.0645 66.0661 15.7266C66.0661 16.2655 67.3516 17.8207 68.2815 18.4213C69.7857 19.4068 69.8951 20.7772 68.4455 20.7772C66.9413 20.7772 65.8473 21.8243 66.2029 22.9021C66.3123 23.2101 66.8046 23.7182 67.3242 24.0416C67.8439 24.3649 68.2541 24.7961 68.2541 24.9809C68.2541 25.412 67.461 25.8586 66.7225 25.8586C66.0388 25.8586 64.5346 25.258 63.4132 24.5189C62.6474 24.0108 62.4286 23.9492 61.0612 23.9184C59.0099 23.8722 58.2442 23.5488 57.6972 22.5326C57.0408 21.2699 54.3605 20.0227 52.7742 20.2536C52.4187 20.2998 51.9264 20.3152 51.7076 20.2536C51.3247 20.1767 51.3247 20.1151 51.7076 19.7147C52.4187 18.9294 52.2546 18.3597 51.2427 18.0671C50.3948 17.8207 50.3675 17.8207 49.8752 18.1749C48.5077 19.1912 47.7693 19.3298 47.0308 18.6984C46.4565 18.2057 45.4445 18.1595 45.718 18.6522C46.3197 19.7301 47.3864 20.4384 48.7538 20.6848C49.2461 20.7772 49.3008 20.8696 49.1914 21.3931C49 22.1938 49.2188 22.6404 50.094 23.1639C50.9145 23.6566 50.8598 24.0724 49.9025 25.1656C49.1641 26.0125 49.3008 26.3205 50.6136 26.7363C51.9537 27.152 52.1999 27.5062 51.8443 28.661C51.27 30.6782 49.2188 31.2325 47.5505 29.8313C46.7026 29.1076 45.2257 28.4762 44.4053 28.4762C43.5027 28.4762 40.9319 28.9536 40.4943 29.1846C39.8105 29.5695 39.9746 30.478 40.8225 30.9707C41.4789 31.3557 41.5062 31.4019 41.0413 31.4943C40.6857 31.5713 40.4122 31.4943 40.0293 31.2017C39.7285 30.9707 39.2909 30.786 39.0174 30.786C38.7712 30.786 37.7046 31.1093 36.6653 31.4943C35.0517 32.0948 34.6688 32.1872 33.8757 32.0948C32.5629 31.9562 32.1526 32.2026 32.1526 33.1265C32.1526 33.727 32.0159 33.958 31.4689 34.2505C31.1134 34.4661 30.5117 34.6355 30.1288 34.6355C28.9801 34.6355 28.5425 35.0358 28.7339 35.8673C28.898 36.5295 28.8433 36.5911 28.2143 36.7604C27.2024 37.0068 27.3391 37.3302 28.6519 37.8691C29.5544 38.2386 30.0467 38.331 31.1954 38.331C32.6996 38.331 33.4381 38.5928 33.1372 39.024C33.0278 39.1779 32.6176 39.2549 31.7971 39.2549C30.3749 39.2549 30.0467 39.3935 28.7886 40.5176C28.2417 40.9949 27.4212 41.5031 26.9836 41.6416C26.5186 41.7648 26.081 42.0266 25.999 42.2268C25.8349 42.5809 26.9562 44.6135 27.64 45.1986C28.187 45.6759 28.6792 47.031 28.4878 47.4775C28.4057 47.6931 27.9682 47.9241 27.5032 48.0319C26.546 48.2628 26.4639 48.4168 27.2297 48.6786C27.8588 48.9095 27.9682 49.6795 27.4212 50.0952C27.1203 50.3262 26.5733 50.3878 24.2486 50.434C21.7051 50.4802 21.3222 50.4494 20.1188 50.1106C19.3804 49.895 18.3684 49.4485 17.9035 49.1097C17.0557 48.5246 14.5669 47.5699 13.8558 47.5699C13.4182 47.5699 13.4729 48.4168 13.9378 48.6324C14.1566 48.7248 14.5669 49.1559 14.8951 49.5871C15.3873 50.2184 15.442 50.4494 15.2232 50.9113C14.9498 51.4656 14.9771 51.5118 16.0164 52.0816C17.2745 52.7591 17.3565 53.067 16.454 53.683C16.1258 53.9139 15.6882 54.2527 15.5241 54.4375C15.2506 54.7146 14.8677 54.7762 12.5977 54.8686C10.2456 54.9764 9.89008 54.9456 9.06959 54.6684C7.83886 54.2373 6.41668 54.2527 5.07655 54.73C3.76377 55.192 3.68172 55.5923 4.66631 56.3622C6.66283 57.9175 6.82692 58.0868 6.79957 58.6412C6.79957 58.9491 6.69017 59.3957 6.58078 59.6266C6.41668 59.9654 6.49873 60.1656 6.93632 60.5043C7.23717 60.7353 7.62006 61.1665 7.72946 61.4436C7.92091 61.8594 8.1397 61.9826 8.87814 62.0595C10.3003 62.2289 10.6012 62.5061 10.7926 63.8303C10.9567 64.8774 11.0661 65.0468 11.7772 65.3855C12.4062 65.6935 12.7618 65.7551 13.5276 65.6781C14.0746 65.6319 14.6489 65.6473 14.8404 65.7089C15.442 65.9091 16.2899 67.1871 16.2899 67.8646C16.2899 68.7731 17.083 69.3737 18.5325 69.6046C19.9821 69.8202 21.1308 70.4669 21.3769 71.2214C21.5684 71.7758 21.5137 71.8374 20.5291 72.2839C18.1497 73.331 18.1497 73.3464 18.0129 74.1317C17.9582 74.5628 17.63 75.2249 17.3292 75.6253L16.7548 76.3336L17.4112 77.0111C17.9309 77.5193 18.2317 77.6732 18.7513 77.6732C19.4077 77.6732 19.4351 77.6271 19.353 76.8725C19.271 75.9025 19.7906 75.2403 20.9393 74.9016C21.6778 74.686 21.8145 74.7014 22.6623 74.9786C23.7837 75.3481 24.4401 75.2557 24.6589 74.686C24.7409 74.4704 24.8503 74.1317 24.9324 73.9315C25.1238 73.3618 26.0537 73.5004 26.6827 74.2087C26.9836 74.532 27.4759 74.8862 27.7494 74.9632C28.0229 75.0556 28.5151 75.3635 28.8433 75.6715C29.2809 76.1026 29.5818 76.2104 30.2382 76.2104C31.3595 76.2104 31.551 76.58 30.7852 77.1651C30.2108 77.6117 30.1835 77.704 30.4843 78.3508C30.6484 78.7357 31.0587 79.2593 31.3595 79.4902C31.8244 79.8444 31.8791 80.06 31.7424 80.6759C31.5783 81.3226 31.633 81.4458 32.18 81.7384C32.5355 81.9077 32.8911 82.0617 33.0005 82.0617C33.356 82.0617 35.7081 84.1405 35.7081 84.433C35.7081 84.7718 36.1457 85.2491 36.9662 85.8035C37.6773 86.2654 37.8414 86.9891 37.2944 86.9891C37.1029 86.9891 36.4739 86.6965 35.9269 86.3424C35.079 85.7881 34.8329 85.7111 34.4227 85.8496C33.0552 86.2962 32.6996 87.6666 33.6569 88.6675C33.8483 88.8831 34.2312 89.576 34.4774 90.2073C35.0243 91.5316 34.9423 91.6085 32.9184 91.6085C31.7697 91.6085 31.4963 91.5316 30.539 90.9926C28.7339 89.9609 27.9135 90.2535 28.4878 91.7317C28.6519 92.2091 28.898 92.7172 29.0074 92.8712C29.1989 93.1638 30.2655 93.4255 31.4689 93.4871C32.262 93.5333 32.2894 93.5487 32.2073 94.3186C32.1253 94.8883 32.2894 95.3195 32.809 95.9816C33.7116 97.1211 33.7116 97.2597 32.6996 98.0296C32.2347 98.3683 31.6877 98.9535 31.4689 99.323C31.2228 99.6926 30.7578 100.17 30.4023 100.385C28.7613 101.371 28.1596 103.003 29.0621 104.019C29.363 104.343 29.7732 105.067 29.9647 105.621C30.4023 106.868 31.1407 107.792 31.9338 108.069C32.2894 108.192 33.3013 108.331 34.2039 108.377L35.8448 108.469L35.7628 108.962C35.6534 109.547 35.7628 109.578 38.3883 109.948C39.5644 110.117 40.6857 110.286 40.9319 110.317C41.2054 110.363 41.8617 110.179 42.5455 109.855C44.4053 108.978 46.2103 109.224 46.5385 110.41C46.7573 111.195 47.2223 111.303 48.5624 110.872C49.1367 110.702 49.6564 110.548 49.7658 110.548C49.8478 110.548 50.3401 110.764 50.8598 111.01C51.9537 111.549 53.0204 113.135 52.8836 113.967C52.8289 114.382 52.6648 114.49 52.0631 114.521C51.1606 114.583 49.3282 113.705 48.535 112.843C48.2616 112.519 47.906 112.211 47.7419 112.165C47.5778 112.103 46.6479 112.458 45.6907 112.95C43.1472 114.198 43.2292 114.552 46.4018 116.215C48.1522 117.139 48.2616 117.169 49.6837 117.169C50.9418 117.169 51.2153 117.108 51.7076 116.769C52.2819 116.369 52.3093 116.369 53.1845 116.615C53.6768 116.769 54.4973 116.861 54.9896 116.846C55.9194 116.8 56.7673 117.062 56.7673 117.416C56.7673 117.524 57.1228 117.755 57.5878 117.939C58.0527 118.124 58.5176 118.494 58.6817 118.832C59.0646 119.649 59.0646 119.664 58.0801 119.325C57.5878 119.156 56.904 119.017 56.5758 119.017C55.9194 119.017 55.3451 118.555 55.4271 118.124C55.5092 117.616 55.3998 117.508 54.6067 117.323C52.364 116.815 51.5162 118.063 53.3212 119.171C53.6768 119.387 54.1691 119.772 54.4426 120.049C54.8802 120.465 54.9075 120.572 54.5793 120.788C53.9503 121.219 51.899 121.019 50.3675 120.403C48.6444 119.71 47.6599 119.71 46.4565 120.449C45.9642 120.757 45.5539 121.081 45.5539 121.158C45.5539 121.466 46.7026 122.081 47.4684 122.174C48.0154 122.235 48.535 122.497 49.0547 122.913L49.8205 123.56H51.6529C53.7862 123.56 54.1691 123.714 54.087 124.561C54.005 125.238 54.4426 125.469 55.3177 125.207C55.728 125.069 55.81 124.838 55.81 123.683C55.81 122.944 55.9741 122.143 56.1382 121.912L56.4664 121.512L57.9707 121.773C58.8185 121.912 59.8031 122.205 60.186 122.405L60.8971 122.79L61.3894 122.436C61.9637 122.004 62.2372 122.128 62.2372 122.821C62.2372 123.267 62.1551 123.329 61.5535 123.329C60.9791 123.329 60.7603 123.467 60.3227 124.022C59.7484 124.776 59.3928 124.853 58.1348 124.484C57.6972 124.36 57.1502 124.299 56.9314 124.345C56.3844 124.468 56.357 124.93 56.8767 125.161C57.0681 125.253 57.3143 125.592 57.4237 125.916C57.5057 126.285 57.998 126.762 58.8458 127.301C59.9945 128.041 60.2133 128.118 61.0885 128.071C61.8269 128.041 62.1825 127.917 62.4833 127.625C62.8389 127.255 62.8115 127.194 62.1004 126.655C61.3894 126.131 61.362 126.054 61.6629 125.438C62.1004 124.576 62.6201 124.206 63.2491 124.314C63.9329 124.437 65.6012 125.854 65.4644 126.208C65.4097 126.362 64.9175 126.624 64.3431 126.793C63.7961 126.963 63.3312 127.178 63.3312 127.286C63.3312 127.378 64.2337 127.825 65.3277 128.256C67.4336 129.103 67.2422 129.072 70.1959 128.795C71.5908 128.656 72.001 128.964 71.6181 129.904C71.372 130.489 71.3993 130.72 71.7275 131.12C72.3292 131.813 72.0557 132.106 70.7976 132.106C68.2541 132.106 66.6952 132.722 66.0388 133.953C65.6559 134.692 66.1208 136.448 66.914 137.172C67.4336 137.649 69.184 138.188 70.7429 138.342C71.5634 138.419 71.8642 138.373 72.6027 138.018C73.9702 137.387 74.8454 136.248 75.0094 134.923C75.0915 134.308 75.2556 133.753 75.365 133.722C75.7205 133.599 78.9751 134.769 79.4127 135.185C80.2332 135.924 80.9443 136.263 81.6281 136.263C82.0109 136.263 83.0229 136.448 83.8434 136.663C84.8827 136.941 86.004 137.095 87.4535 137.141C89.45 137.233 89.6141 137.264 90.2705 137.741C90.7628 138.095 91.3645 138.311 92.4311 138.48C93.2516 138.619 94.2636 138.896 94.7012 139.096C96.0139 139.712 97.6823 140.128 99.4326 140.267C101.156 140.405 102.304 140.713 102.933 141.221C103.562 141.714 104.903 141.468 104.903 140.867C104.903 140.498 105.504 140.405 106.708 140.59C108.595 140.898 110.892 140.436 111.466 139.651C111.904 139.066 112.971 138.573 113.819 138.573C114.694 138.573 118.495 140.143 122.023 141.96C124.485 143.223 125.196 143.516 126.317 143.67C128.368 143.947 129.08 143.777 131.459 142.499C134.139 141.052 135.315 140.913 133.756 142.207C132.991 142.854 132.881 143.562 133.456 144.347C133.948 144.994 134.413 145.025 135.753 144.501C136.929 144.055 138.269 144.008 138.871 144.378C139.117 144.532 139.554 144.978 139.855 145.379C140.512 146.241 141.059 146.426 142.918 146.426C143.684 146.426 144.559 146.487 144.833 146.58C145.571 146.811 149.4 146.349 150.658 145.872C151.561 145.533 151.916 145.487 153.038 145.579C153.858 145.641 154.405 145.625 154.542 145.517C154.816 145.256 155.527 145.317 156.429 145.702C156.894 145.902 157.496 146.103 157.742 146.164C158.562 146.333 160.969 145.872 161.899 145.363C162.938 144.794 163.458 144.778 164.716 145.209C165.372 145.44 165.892 145.517 166.466 145.44C166.986 145.394 167.615 145.44 168.08 145.579C169.475 145.979 169.94 145.887 170.295 145.132C170.842 143.901 172.347 143.546 172.018 144.732C171.854 145.271 171.909 145.348 172.62 145.548C173.058 145.671 174.015 145.825 174.726 145.887C176.367 146.026 177.461 146.518 178.364 147.519C179.102 148.366 179.731 148.628 181.454 148.89C182.603 149.059 184.654 149.706 185.119 150.044C185.228 150.121 185.392 150.399 185.502 150.63C185.693 151.122 186.295 151.353 187.416 151.353C188.565 151.353 188.866 151.615 188.866 152.616C188.866 153.709 189.44 154.541 190.315 154.725C190.644 154.802 191.519 154.833 192.23 154.787C193.707 154.695 194.226 154.864 194.472 155.511C194.746 156.188 195.293 156.373 196.141 156.05C196.797 155.819 196.852 155.726 196.66 155.141C196.36 154.125 196.469 153.709 197.235 152.97C197.836 152.37 197.891 152.216 197.645 151.8C197.289 151.215 197.372 151.138 198.684 150.66C199.313 150.445 199.942 150.044 200.298 149.629C200.599 149.259 201.036 148.859 201.282 148.751C201.912 148.458 201.829 147.781 201.118 147.273C200.462 146.795 200.38 146.056 200.9 145.502C201.31 145.055 202.431 145.163 203.99 145.81C204.674 146.087 205.44 146.272 205.932 146.272C207.053 146.272 208.475 145.764 209.05 145.179C210.144 144.055 211.128 143.315 212.824 142.407C214.52 141.468 214.602 141.391 214.438 140.852C214.301 140.405 214.41 140.159 214.957 139.666L215.668 139.035L217.665 139.004C218.732 138.989 220.345 139.004 221.22 139.019C223.408 139.081 224.284 138.85 224.83 138.049C225.213 137.48 225.213 137.326 224.83 136.386C224.612 135.817 224.448 135.062 224.448 134.692C224.475 134.323 224.366 133.861 224.174 133.661C223.983 133.476 223.901 133.276 223.983 133.23C224.229 133.091 225.514 133.645 225.76 134C226.034 134.385 227.538 135.216 228.441 135.478C228.769 135.57 229.371 135.647 229.808 135.647C230.574 135.647 233.61 135.955 236.728 136.355C237.986 136.509 239.709 136.556 242.608 136.525C246.245 136.479 246.792 136.509 247.394 136.756C248.242 137.095 250.949 137.326 250.949 137.048C250.949 136.941 250.566 136.586 250.102 136.263C248.953 135.478 249.172 135.031 250.676 135.031C251.278 135.031 252.262 135.185 252.891 135.355C253.602 135.57 254.833 135.74 256.31 135.817C258.224 135.909 259.017 136.048 261.151 136.633C262.71 137.048 263.913 137.495 264.187 137.726C264.843 138.296 265.718 138.188 266.347 137.449C266.648 137.095 267.113 136.802 267.578 136.71C267.988 136.633 268.699 136.463 269.137 136.34C269.602 136.217 270.942 136.094 272.145 136.063C273.704 136.017 274.661 135.909 275.455 135.663C276.357 135.401 276.713 135.355 277.314 135.493C277.725 135.57 278.901 135.647 279.913 135.647C281.663 135.647 281.8 135.678 282.675 136.186L283.605 136.725L287.023 136.71C288.938 136.694 290.852 136.648 291.29 136.586C291.755 136.54 292.767 136.556 293.587 136.633C294.955 136.771 295.092 136.756 295.557 136.432C295.885 136.202 296.076 135.817 296.076 135.355C296.104 134.97 296.35 134.261 296.651 133.799C296.951 133.337 297.28 132.783 297.362 132.568C297.553 131.982 296.514 131.52 294.545 131.32C293.669 131.228 292.493 130.997 291.974 130.797C291.454 130.581 290.606 130.35 290.114 130.242C289.512 130.119 289.047 129.873 288.664 129.457C288.008 128.718 287.543 128.61 286.613 128.949C285.765 129.257 284.48 129.195 284.371 128.841C284.289 128.641 284.644 128.518 285.793 128.333C286.941 128.148 287.516 127.948 288.035 127.548C288.446 127.255 288.993 127.024 289.293 127.024C289.786 127.024 291.509 127.502 293.287 128.133L294.189 128.441L295.666 128.133C297.225 127.794 297.854 127.825 299.276 128.287C300.069 128.549 300.206 128.564 300.917 128.348C301.327 128.225 302.038 127.871 302.449 127.579C303.379 126.916 304.281 126.624 305.977 126.485C307.016 126.393 307.481 126.254 308.274 125.762C309.259 125.13 309.395 124.684 308.794 123.898C308.63 123.683 308.739 123.637 309.477 123.637C310.161 123.637 310.626 123.498 311.365 123.052C312.814 122.205 314.154 121.789 315.44 121.789C316.616 121.789 317.792 121.373 320.417 120.049C323.07 118.694 322.769 118.293 318.694 117.801C317.217 117.616 315.686 117.477 315.276 117.477C314.865 117.477 313.935 117.293 313.17 117.077C312.021 116.754 311.556 116.692 310.38 116.769C309.614 116.815 308.63 116.784 308.247 116.707C307.754 116.6 307.18 116.6 306.469 116.707C305.348 116.877 302.449 116.554 301.409 116.153C300.753 115.891 300.015 115.876 298.428 116.122C297.416 116.276 297.033 116.261 296.158 116.045C295.584 115.907 294.572 115.753 293.888 115.691C292.384 115.568 290.634 114.814 289.622 113.843C288.938 113.197 287.981 112.858 287.352 113.074C286.641 113.335 286.312 112.689 286.121 110.656C285.957 108.947 286.012 108.469 286.34 108.008C286.586 107.684 286.777 107.145 286.777 106.776C286.777 106.422 286.914 105.913 287.078 105.652C287.27 105.344 287.297 104.928 287.133 104.512C286.805 103.604 286.969 103.188 287.762 102.911C288.282 102.711 288.5 102.695 288.829 102.849C289.43 103.126 289.321 103.634 288.555 104.42C287.981 105.02 287.926 105.143 288.254 105.297C288.555 105.436 288.911 105.374 289.95 105.005C290.661 104.759 291.399 104.543 291.591 104.543C291.782 104.543 292.247 104.327 292.63 104.05C293.287 103.557 293.341 103.557 294.298 103.758C295.611 104.019 296.486 103.711 296.897 102.849C297.061 102.51 297.553 102.002 297.991 101.71C298.428 101.433 298.948 100.924 299.139 100.601C299.741 99.554 301.218 99.7696 301.218 100.894C301.218 101.14 301.382 101.448 301.628 101.571C301.984 101.771 302.12 101.771 302.859 101.556C303.324 101.417 303.789 101.109 303.953 100.847C304.117 100.601 304.363 100.385 304.472 100.385C304.609 100.385 304.91 100.724 305.184 101.14C305.922 102.31 308.083 103.142 308.575 102.449C308.684 102.295 308.466 102.079 307.946 101.848C307.043 101.433 307.153 101.186 308.466 100.632C309.149 100.355 309.204 100.355 309.888 100.601C310.353 100.77 310.872 100.832 311.283 100.786C311.912 100.693 311.939 100.632 311.939 99.4924C311.939 98.6917 312.13 98.0142 312.486 97.4136C312.787 96.9363 313.033 96.3974 313.033 96.228C313.033 95.6737 312.294 95.0885 311.2 94.7344C309.56 94.2108 309.122 93.8567 309.313 93.2715C309.395 92.9944 309.614 92.1783 309.778 91.4546C309.942 90.7309 310.189 90.0687 310.325 89.9763C310.462 89.884 310.544 89.191 310.517 88.4365C310.489 87.4203 310.626 86.7889 311.064 85.9728C311.83 84.5716 311.83 84.1097 310.982 82.9856C310.435 82.2465 310.298 81.8153 310.298 80.6913C310.298 79.0591 310.161 78.8281 308.301 77.2575C306.989 76.1334 306.77 76.0256 305.512 75.8255C304.773 75.7023 303.543 75.5637 302.804 75.5021C301.546 75.4097 297.909 74.4396 296.842 73.9315C296.568 73.8083 296.268 73.4542 296.186 73.1462C295.967 72.4687 295.721 72.2069 294.545 71.3292C294.025 70.9443 293.615 70.5593 293.615 70.4361C293.615 70.3283 293.259 69.8356 292.794 69.3583C292.357 68.8809 291.974 68.3882 291.974 68.2804C291.974 67.9262 293.068 67.3103 293.888 67.2025C295.037 67.0639 296.049 66.5558 296.541 65.8783C296.979 65.2624 297.115 65.2316 298.811 65.2778C299.632 65.3086 300.233 65.5703 303.324 67.2641C305.84 68.6653 307.125 69.2505 307.727 69.3275C308.247 69.3891 308.848 69.62 309.313 69.9588C309.724 70.2667 310.189 70.5131 310.353 70.5131C311.009 70.5131 313.635 71.6526 314.264 72.2069C314.893 72.7766 316.041 73.1308 317.245 73.1308C317.573 73.1308 318.421 73.254 319.132 73.3926L320.445 73.6543L321.867 72.792C322.961 72.1299 323.535 71.8989 324.383 71.8066C325.368 71.7142 325.504 71.745 326.024 72.1453C327.692 73.4542 328.595 73.6389 330.947 73.1308C333.272 72.6381 333.928 72.6073 335.186 72.8844C336.745 73.2386 337.019 73.2078 338.195 72.5457C338.769 72.2377 339.589 71.8528 339.972 71.6834C340.383 71.5294 340.93 71.1136 341.203 70.7595C341.449 70.4207 342.215 69.7894 342.871 69.3737C343.883 68.7269 344.075 68.5114 344.075 67.957C344.075 67.1101 343.473 66.756 340.191 65.6319C338.495 65.0468 337.593 64.631 337.429 64.3693C336.718 63.2452 336.28 62.3983 336.28 62.1827C336.28 62.0595 335.76 61.5976 335.131 61.1511C334.475 60.7199 333.709 60.1502 333.408 59.873C332.561 59.1031 331.685 58.8259 329.388 58.6104C326.708 58.3486 325.532 58.518 325.395 59.1493C325.313 59.4727 325.121 59.5958 324.574 59.6728C323.125 59.8576 323.016 59.8884 322.551 60.335C321.949 60.9509 320.91 61.305 319.46 61.3974C318.011 61.4898 317.682 61.2434 318.339 60.5197C319.022 59.7806 318.913 59.2109 317.928 58.749C316.917 58.2562 315.686 58.2254 314.537 58.6566C314.1 58.8259 313.334 58.9645 312.896 58.9645C312.431 58.9645 311.665 59.0261 311.146 59.1185C310.38 59.2417 310.052 59.2109 309.286 58.9491C308.548 58.6874 308.11 58.6412 307.18 58.7182C306.223 58.8105 305.375 58.7028 302.749 58.2254C300.944 57.8867 298.948 57.5633 298.264 57.5017C296.733 57.3631 296.322 57.2399 294.298 56.3468C293.396 55.9619 292.439 55.5615 292.165 55.4692C291.892 55.3922 291.399 55.0534 291.071 54.73C290.196 53.8523 289.704 53.7446 288.692 54.1603C287.379 54.7146 287.215 54.5145 287.434 52.6821C287.543 51.4656 287.735 50.9267 288.145 50.5418C288.774 49.9258 288.829 49.4947 288.282 48.9557C288.063 48.7402 287.899 48.3706 287.871 48.1242C287.871 47.6469 287.516 46.9078 286.887 46.0609C286.34 45.3526 286.422 44.5365 287.051 44.0283C287.352 43.7974 287.707 43.4278 287.871 43.1968C288.172 42.7503 287.817 42.4731 286.121 41.8264C285.711 41.6724 285.41 41.4107 285.41 41.1951C285.41 40.5176 284.589 39.3165 283.632 38.6544C283.112 38.2848 282.675 37.8229 282.675 37.6381C282.675 37.4533 282.374 36.8066 281.991 36.2061C281.499 35.4054 281.307 34.7895 281.307 33.9426C281.307 32.9109 281.225 32.7261 280.624 32.4028C280.077 32.0794 279.694 32.0178 278.463 32.0178C277.096 32.0178 276.931 32.064 276.111 32.5875C275.619 32.8955 275.044 33.3728 274.853 33.65C274.634 33.9272 274.361 34.1889 274.224 34.2351C274.087 34.2967 273.896 34.5277 273.786 34.7587C273.704 35.005 273.212 35.5286 272.692 35.9443C272.173 36.3601 271.735 36.7758 271.735 36.8836C271.735 37.2224 271.079 37.361 269.082 37.4687L267.113 37.5765L265.609 36.8066C262.819 35.3746 260.877 35.0512 260.111 35.8673C259.619 36.3909 259.373 36.4371 258.771 36.0829C258.47 35.9289 258.334 35.5594 258.334 35.0204C258.334 34.5585 258.224 34.1427 258.06 34.0966C257.541 33.9118 255.79 34.2197 254.888 34.6663L253.985 35.1128L253.137 34.7741C252.372 34.4507 252.207 34.4353 251.004 34.6047C250.293 34.7125 249.199 34.9435 248.57 35.1128C247.148 35.4978 246.738 35.39 246.984 34.6971C247.175 34.0504 246.573 33.2497 245.425 32.7107C244.495 32.2642 244.03 32.2334 243.456 32.5721C242.854 32.8955 242.909 33.5576 243.565 34.0196C244.385 34.6047 244.276 35.2976 243.264 35.8519C242.799 36.1137 242.28 36.3293 242.088 36.3293C241.65 36.3293 241.021 35.9289 240.447 35.2822C239.818 34.5893 239.08 34.6355 238.369 35.4054C237.822 36.0059 237.657 36.8836 238.04 37.1762C238.15 37.2686 238.724 37.4995 239.326 37.6997C240.639 38.1309 240.803 38.254 241.541 39.6861C242.197 40.9487 242.143 41.0257 240.283 41.1643C238.341 41.3029 238.204 41.3029 237.083 40.9025C235.798 40.4252 235.087 40.3482 231.914 40.2712C229.562 40.225 229.316 40.1788 227.265 39.5321C225.46 38.9778 225.077 38.7776 224.967 38.408L224.83 37.9461L222.615 38.0077C220.537 38.0539 220.345 38.0231 219.935 37.6997C219.689 37.4995 219.497 37.1454 219.497 36.899C219.497 36.2061 219.032 35.8981 217.774 35.7134C215.805 35.4362 215.45 35.2976 215.258 34.7587C215.149 34.4815 214.821 34.0812 214.547 33.881C213.836 33.3882 213.891 33.0033 214.711 32.6029C215.668 32.141 215.614 31.8022 214.656 31.9254C211.976 32.2642 211.921 32.2488 209.022 30.8322C208.339 30.478 207.737 30.324 207.108 30.324C205.85 30.324 205.686 30.2162 204.865 29.0152C203.744 27.3984 203.881 27.4754 202.24 27.4754C201.173 27.4754 200.489 27.383 199.751 27.1212C198.848 26.7979 198.712 26.6901 198.712 26.1511C198.712 25.6122 198.575 25.5044 197.289 24.9655C196.496 24.6421 195.293 24.1802 194.609 23.9338C193.023 23.3949 191.19 22.4094 190.315 21.6395L189.632 21.039L190.179 20.6386C190.644 20.2844 192.421 19.5453 194.937 18.6984C195.84 18.3905 196.113 18.0825 196.387 17.0508C196.496 16.6813 196.961 16.2039 197.618 15.7574C198.575 15.1569 198.712 14.9567 198.712 14.3254C198.712 13.8018 198.493 13.4169 197.946 12.9087C196.715 11.8001 196.496 11.3997 196.36 10.0139C196.141 8.08913 196.113 7.99674 195.184 7.99674C194.637 7.99674 194.308 8.10453 194.062 8.39709C193.652 8.81284 193.105 8.82824 190.972 8.53568C190.343 8.44329 190.069 8.52028 189.112 9.07461C188.073 9.67514 187.991 9.76753 188.182 10.2911C188.62 11.5229 188.565 11.5845 187.006 11.9849C185.365 12.416 185.283 12.6778 186.787 12.7086C188.127 12.724 189.249 13.2013 189.358 13.8172C189.495 14.5255 188.784 14.6641 185.748 14.5409C182.411 14.4024 181.563 14.5871 180.497 15.7112C179.95 16.2963 179.293 16.6967 178.336 17.0354C177.598 17.3126 176.504 17.8207 175.929 18.1749C174.89 18.8062 174.89 18.8062 174.316 18.5291C174.015 18.3597 173.468 17.8823 173.14 17.4666C172.374 16.5119 171.663 16.1423 170.569 16.127C169.393 16.1116 168.928 16.3887 168.736 17.2818C168.545 18.0055 167.889 18.6214 167.26 18.6214C166.767 18.6214 165.619 17.8823 165.619 17.559C165.619 17.0046 166.22 16.4965 167.096 16.3117C168.545 16.0038 168.764 15.9114 168.846 15.4802C168.901 15.2185 168.709 14.9105 168.244 14.6025C167.752 14.2792 167.533 13.9558 167.533 13.5401C167.533 12.9241 167.807 12.724 168.901 12.5392C170.514 12.2774 171.034 11.5229 169.967 10.984C169.557 10.7838 169.01 10.7068 167.943 10.7068C165.947 10.7222 165.208 11.0302 164.689 12.031C164.443 12.4776 164.142 12.9395 164.032 13.0473C163.649 13.3861 159.274 14.1714 158.891 13.9866C158.18 13.6633 158.125 12.8164 158.754 12.3698C159.52 11.8155 159.492 11.2149 158.644 10.7684C157.824 10.3219 157.797 10.0909 158.535 9.1516C159.109 8.42789 159.109 8.39709 158.617 8.19692C158.344 8.08913 157.797 7.99674 157.359 7.99674C156.484 7.99674 156.046 7.62719 156.046 6.93427C156.046 6.50312 155.253 5.841 154.733 5.841C154.624 5.841 154.077 6.01038 153.53 6.22596C152.327 6.6879 150.248 6.74949 149.236 6.36454C148.662 6.13357 148.635 6.04118 148.771 4.93251C148.826 4.28579 148.99 3.46969 149.072 3.10014C149.291 2.37643 148.799 2.19165 148.197 2.76138C147.787 3.11554 145.954 3.4235 144.997 3.28491C143.958 3.14633 143.329 3.33111 142.536 3.99323C141.633 4.76313 141.277 4.77853 141.25 4.02402C141.223 3.17713 140.895 2.69979 140.375 2.63819C140.019 2.592 139.91 2.69979 139.91 3.13093C139.91 3.71606 139.39 4.10102 138.378 4.2396C137.831 4.31659 137.421 4.1934 136.19 3.53128L134.686 2.73058L132.909 2.79217C130.611 2.86917 130.365 3.00775 130.994 3.97783C131.35 4.56296 131.404 4.80933 131.185 5.0557C130.857 5.39446 129.353 5.68702 127.958 5.68702C127.302 5.68702 126.919 5.81021 126.454 6.14897C126.126 6.41073 125.333 6.74949 124.704 6.93427C123.692 7.19604 123.528 7.31922 123.364 7.85816C123.008 9.02842 120.519 10.1063 119.152 9.69053C118.413 9.47496 118.167 8.64346 118.495 7.4886C118.96 5.8718 118.304 5.36366 116.116 5.68702C114.42 5.94879 114.201 5.76401 114.201 4.2088C114.201 2.93076 114.53 2.45342 115.405 2.45342C115.979 2.45342 116.663 1.91448 116.663 1.46794C116.663 0.852011 116.198 0.45166 115.159 0.20529C113.873 -0.0872742 113.189 -0.0718761 112.834 0.282281Z" fill="url(#paint0_linear_4_7)"/>
<path d="M156.046 3.9162C155.609 4.20876 155.937 4.7169 156.785 5.02486C157.468 5.27123 157.496 5.27123 157.988 4.93247C158.644 4.48593 158.644 4.37814 157.961 3.99319C157.304 3.62363 156.511 3.59284 156.046 3.9162Z" fill="url(#paint1_linear_4_7)"/>
<path d="M77.8538 7.65794C77.6897 7.82732 77.7171 8.32006 77.9085 9.04377C78.182 10.0139 78.2914 10.1524 78.811 10.1524C79.7683 10.1524 80.8349 9.5827 80.8349 9.05917C80.8349 7.88891 78.6196 6.84184 77.8538 7.65794Z" fill="url(#paint2_linear_4_7)"/>
<path d="M160.012 8.76664C159.821 9.1208 160.039 9.38257 160.559 9.38257C160.997 9.38257 161.352 8.84363 161.106 8.61266C160.832 8.35089 160.203 8.44328 160.012 8.76664Z" fill="url(#paint3_linear_4_7)"/>
<path d="M72.7121 11.7847C72.2745 12.4314 74.0796 13.3399 74.9548 12.9241C75.4197 12.7086 75.3103 12.108 74.7633 11.7385C74.3531 11.4613 72.9309 11.4921 72.7121 11.7847Z" fill="url(#paint4_linear_4_7)"/>
<path d="M7.62006 42.7349C7.34657 43.1352 7.89356 43.7974 8.4679 43.7974C9.31574 43.7974 9.61658 43.3508 9.09694 42.8889C8.54995 42.4423 7.86621 42.3653 7.62006 42.7349Z" fill="url(#paint5_linear_4_7)"/>
<path d="M14.9224 69.8356C14.9224 70.3745 16.1532 71.129 17.0283 71.129C17.8488 71.129 17.8488 70.7287 17.0283 70.0358C16.6181 69.697 16.1532 69.4968 15.6609 69.466C15.0045 69.4198 14.9224 69.466 14.9224 69.8356Z" fill="url(#paint6_linear_4_7)"/>
<path d="M12.5703 74.7476C12.3789 75.0248 12.6524 75.2865 13.1447 75.2865C13.719 75.2865 13.9105 74.994 13.5549 74.7476C13.1173 74.455 12.7618 74.455 12.5703 74.7476Z" fill="url(#paint7_linear_4_7)"/>
<path d="M25.8622 81.9693C24.3853 82.1541 24.358 82.1541 24.1392 82.847C23.8657 83.7401 24.0571 84.6332 24.6315 84.9874C25.3152 85.4031 28.5972 86.2346 29.1715 86.1422C29.4177 86.096 30.1014 85.7727 30.621 85.4339C31.5783 84.8488 31.6056 84.8026 31.4415 83.9403C31.1954 82.4467 31.1133 82.3697 29.8826 82.0617C28.5972 81.723 28.0502 81.723 25.8622 81.9693Z" fill="url(#paint8_linear_4_7)"/>
<path d="M326.024 102.418C325.723 102.51 325.395 102.664 325.286 102.757C324.985 103.019 325.586 103.465 326.243 103.465C326.981 103.465 328.486 102.649 328.239 102.403C327.993 102.187 326.735 102.187 326.024 102.418Z" fill="url(#paint9_linear_4_7)"/>
<path d="M350.31 111.919C349.025 112.257 348.697 112.535 348.423 113.458C348.259 114.028 348.341 114.151 348.998 114.552C349.982 115.121 352.252 115.583 352.827 115.322C353.456 115.029 354.139 113.659 353.975 113.043C353.784 112.458 352.58 111.626 351.897 111.626C351.651 111.626 350.939 111.765 350.31 111.919Z" fill="url(#paint10_linear_4_7)"/>
<path d="M228.085 145.425C227.183 146.195 228.632 146.888 230.136 146.41C231.012 146.133 231.176 145.718 230.547 145.333C229.863 144.917 228.632 144.948 228.085 145.425Z" fill="url(#paint11_linear_4_7)"/>
<path d="M228.112 149.536C227.812 149.629 227.265 149.86 226.882 150.06C226.471 150.26 225.569 150.476 224.584 150.568C223.709 150.66 222.834 150.814 222.643 150.891C222.451 150.984 222.068 151.569 221.822 152.2L221.384 153.34L222.096 154.048C222.998 154.895 223.408 154.91 225.897 154.279C227.812 153.802 228.386 153.432 229.261 152.123C229.535 151.738 230.027 151.199 230.355 150.907C231.039 150.337 231.148 149.813 230.656 149.536C230.246 149.305 228.851 149.305 228.112 149.536Z" fill="url(#paint12_linear_4_7)"/>
<path d="M56.2476 150.198C55.7827 150.506 55.3998 150.845 55.3998 150.953C55.3998 151.215 56.5758 151.815 57.0955 151.815C57.7518 151.815 58.5176 151.23 58.5176 150.691C58.5176 149.521 57.6151 149.336 56.2476 150.198Z" fill="url(#paint13_linear_4_7)"/>
<path d="M16.2352 150.168C15.6609 150.352 15.1412 150.614 15.0318 150.737C14.2113 151.846 14.4575 152.339 15.9344 152.57C17.3565 152.801 17.7941 152.785 18.4232 152.462C18.8061 152.277 19.0522 151.923 19.1616 151.338C19.3257 150.568 19.271 150.414 18.7787 150.137C18.0676 149.736 17.5206 149.736 16.2352 150.168Z" fill="url(#paint14_linear_4_7)"/>
<path d="M150.111 151.892C148.334 152.385 148.142 152.554 148.963 152.939C150.276 153.54 153.311 153.032 153.311 152.2C153.311 151.43 152.217 151.322 150.111 151.892Z" fill="url(#paint15_linear_4_7)"/>
<path d="M247.531 154.017C245.808 154.402 244.932 154.756 244.932 155.064C244.932 155.495 246.464 157.143 246.984 157.266C247.203 157.312 247.667 157.589 247.968 157.897C248.296 158.19 248.652 158.436 248.789 158.436C249.144 158.436 251.578 156.943 251.825 156.589C252.125 156.127 251.551 155.28 250.457 154.618C249.281 153.894 248.679 153.771 247.531 154.017Z" fill="url(#paint16_linear_4_7)"/>
<path d="M141.223 155.927C140.539 156.373 139.637 157.405 139.637 157.759C139.637 157.944 139.828 158.175 140.074 158.298C140.293 158.406 140.676 158.683 140.895 158.929C141.113 159.16 141.469 159.36 141.688 159.36C142.344 159.36 144.915 158.082 145.189 157.62C145.872 156.45 142.59 155.049 141.223 155.927Z" fill="url(#paint17_linear_4_7)"/>
<path d="M57.7245 157.559C56.4664 157.959 56.2476 158.344 56.8767 159.021C57.9433 160.192 61.1432 159.868 61.1432 158.606C61.1432 158.298 59.5022 157.205 59.0646 157.205C58.9279 157.205 58.3262 157.374 57.7245 157.559Z" fill="url(#paint18_linear_4_7)"/>
<path d="M201.255 157.59C200.79 157.697 200.325 157.928 200.216 158.098C200.134 158.282 199.067 159.022 197.891 159.776C196.688 160.515 195.703 161.177 195.703 161.239C195.703 161.285 195.266 161.485 194.719 161.685C193.625 162.055 192.968 162.763 192.968 163.549C192.968 163.826 192.777 164.195 192.558 164.349C192.038 164.734 192.038 165.566 192.558 166.567C193.023 167.46 193.351 167.583 195.238 167.737C196.524 167.845 196.578 167.875 197.235 168.676C197.809 169.431 197.973 169.508 198.903 169.6C199.477 169.646 200.325 169.754 200.763 169.846C202.486 170.201 204.209 170.293 205.139 170.077C205.631 169.954 206.123 169.785 206.233 169.677C206.725 169.23 207.792 169.2 209.186 169.6C209.925 169.831 210.691 169.97 210.91 169.923C211.101 169.877 211.593 169.554 211.976 169.215C212.414 168.83 213.07 168.491 213.644 168.353C214.164 168.23 214.574 168.076 214.574 167.999C214.574 167.937 214.219 167.414 213.754 166.859C212.797 165.658 212.769 165.396 213.48 164.611C213.754 164.288 214.109 163.61 214.274 163.117C214.41 162.609 214.602 162.04 214.684 161.824C214.903 161.316 214.766 161.223 212.386 160.361C211.265 159.961 209.679 159.206 208.858 158.714C208.065 158.221 207.053 157.713 206.616 157.59C205.631 157.297 202.431 157.297 201.255 157.59Z" fill="url(#paint19_linear_4_7)"/>
<path d="M165.81 162.178C165.072 162.286 164.169 162.517 163.786 162.717C163.02 163.102 163.02 163.364 163.759 164.827C164.142 165.566 164.196 165.612 165.646 165.889C167.424 166.243 168.272 166.166 169.42 165.519C170.815 164.734 170.842 163.071 169.475 162.378C168.791 162.04 167.424 161.963 165.81 162.178Z" fill="url(#paint20_linear_4_7)"/>
<path d="M220.4 165.827C219.333 166.182 218.95 166.567 218.95 167.244C218.95 167.937 219.361 168.137 220.755 168.137C222.807 168.137 224.256 167.152 223.463 166.289C222.725 165.489 221.767 165.35 220.4 165.827Z" fill="url(#paint21_linear_4_7)"/>
<path d="M236.618 167.614C235.825 168.045 235.825 168.538 236.563 169.261C237.876 170.509 239.052 170.847 240.119 170.247C240.803 169.862 241.268 168.815 240.967 168.291C240.748 167.906 238.943 167.367 237.849 167.367C237.411 167.367 236.837 167.475 236.618 167.614Z" fill="url(#paint22_linear_4_7)"/>
<path d="M135.096 169.446C134.823 169.569 134.167 169.677 133.647 169.677C132.881 169.677 132.444 169.831 131.295 170.478C130.092 171.171 129.791 171.432 129.49 172.202C129.189 173.003 129.189 173.188 129.627 173.896C130.502 175.313 130.639 175.374 132.799 175.374H134.686L136.519 174.389C138.16 173.496 138.324 173.357 138.214 172.911C138.132 172.633 138.242 172.064 138.46 171.663C138.98 170.678 138.597 169.97 137.339 169.523C136.245 169.153 135.808 169.138 135.096 169.446Z" fill="url(#paint23_linear_4_7)"/>
<path d="M289.512 173.049C288.938 173.681 289.403 174.604 290.305 174.604C291.071 174.604 292.247 174.004 292.247 173.619C292.247 172.864 290.114 172.433 289.512 173.049Z" fill="url(#paint24_linear_4_7)"/>
<path d="M175.082 177.361C174.453 177.761 174.07 178.747 174.343 179.316C174.535 179.732 174.644 179.763 176.394 179.886C178.774 180.055 179.02 179.994 179.02 179.27C179.02 178.161 178.528 177.53 177.516 177.284C176.258 176.991 175.629 177.007 175.082 177.361Z" fill="url(#paint25_linear_4_7)"/>
<path d="M171.444 183.043C171.253 183.104 171.006 183.474 170.842 183.843C170.706 184.228 170.323 184.644 170.022 184.767C169.721 184.89 169.147 185.121 168.736 185.291C168.08 185.552 168.025 185.645 168.217 186.215C168.326 186.553 168.49 187.231 168.6 187.693C168.955 189.417 171.198 190.495 172.894 189.772C173.167 189.648 173.878 189.479 174.425 189.387C175.218 189.263 175.601 189.079 176.011 188.617C176.312 188.278 176.558 187.893 176.558 187.754C176.558 187.616 176.941 186.877 177.406 186.122C178.199 184.798 178.227 184.721 177.762 184.444C177.434 184.244 176.941 184.151 176.121 184.151C175.136 184.151 174.726 184.043 173.687 183.535C172.401 182.919 172.046 182.827 171.444 183.043Z" fill="url(#paint26_linear_4_7)"/>
</g>
<defs>
<filter id="filter0_d_4_7" x="0" y="0" width="358" height="198" filterUnits="userSpaceOnUse" color-interpolation-filters="sRGB">
<feFlood flood-opacity="0" result="BackgroundImageFix"/>
<feColorMatrix in="SourceAlpha" type="matrix" values="0 0 0 0 0 0 0 0 0 0 0 0 0 0 0 0 0 0 127 0" result="hardAlpha"/>
<feOffset dy="4"/>
<feGaussianBlur stdDeviation="2"/>
<feComposite in2="hardAlpha" operator="out"/>
<feColorMatrix type="matrix" values="0 0 0 0 0 0 0 0 0 0 0 0 0 0 0 0 0 0 0.25 0"/>
<feBlend mode="normal" in2="BackgroundImageFix" result="effect1_dropShadow_4_7"/>
<feBlend mode="normal" in="SourceGraphic" in2="effect1_dropShadow_4_7" result="shape"/>
</filter>
<linearGradient id="paint0_linear_4_7" x1="190.911" y1="153.957" x2="-40.4682" y2="70.9417" gradientUnits="userSpaceOnUse">
<stop stop-color="#C6A9A9"/>
<stop offset="0.5" stop-color="white" stop-opacity="0.28"/>
<stop offset="1" stop-color="#C6A9A9" stop-opacity="0"/>
</linearGradient>
<linearGradient id="paint1_linear_4_7" x1="157.295" y1="5.17779" x2="155.433" y2="4.64312" gradientUnits="userSpaceOnUse">
<stop stop-color="#C6A9A9"/>
<stop offset="0.5" stop-color="white" stop-opacity="0.28"/>
<stop offset="1" stop-color="#C6A9A9" stop-opacity="0"/>
</linearGradient>
<linearGradient id="paint2_linear_4_7" x1="79.4438" y1="10.1124" x2="77.1484" y2="9.69274" gradientUnits="userSpaceOnUse">
<stop stop-color="#C6A9A9"/>
<stop offset="0.5" stop-color="white" stop-opacity="0.28"/>
<stop offset="1" stop-color="#C6A9A9" stop-opacity="0"/>
</linearGradient>
<linearGradient id="paint3_linear_4_7" x1="160.627" y1="9.3693" x2="159.717" y2="9.16714" gradientUnits="userSpaceOnUse">
<stop stop-color="#C6A9A9"/>
<stop offset="0.5" stop-color="white" stop-opacity="0.28"/>
<stop offset="1" stop-color="#C6A9A9" stop-opacity="0"/>
</linearGradient>
<linearGradient id="paint4_linear_4_7" x1="74.0749" y1="13.0079" x2="72.2309" y2="12.4745" gradientUnits="userSpaceOnUse">
<stop stop-color="#C6A9A9"/>
<stop offset="0.5" stop-color="white" stop-opacity="0.28"/>
<stop offset="1" stop-color="#C6A9A9" stop-opacity="0"/>
</linearGradient>
<linearGradient id="paint5_linear_4_7" x1="8.53995" y1="43.7787" x2="7.2225" y2="43.4766" gradientUnits="userSpaceOnUse">
<stop stop-color="#C6A9A9"/>
<stop offset="0.5" stop-color="white" stop-opacity="0.28"/>
<stop offset="1" stop-color="#C6A9A9" stop-opacity="0"/>
</linearGradient>
<linearGradient id="paint6_linear_4_7" x1="16.4181" y1="71.1049" x2="14.4676" y2="70.5835" gradientUnits="userSpaceOnUse">
<stop stop-color="#C6A9A9"/>
<stop offset="0.5" stop-color="white" stop-opacity="0.28"/>
<stop offset="1" stop-color="#C6A9A9" stop-opacity="0"/>
</linearGradient>
<linearGradient id="paint7_linear_4_7" x1="13.1824" y1="75.2756" x2="12.3036" y2="75.0416" gradientUnits="userSpaceOnUse">
<stop stop-color="#C6A9A9"/>
<stop offset="0.5" stop-color="white" stop-opacity="0.28"/>
<stop offset="1" stop-color="#C6A9A9" stop-opacity="0"/>
</linearGradient>
<linearGradient id="paint8_linear_4_7" x1="28.1395" y1="86.0867" x2="22.8081" y2="84.5731" gradientUnits="userSpaceOnUse">
<stop stop-color="#C6A9A9"/>
<stop offset="0.5" stop-color="white" stop-opacity="0.28"/>
<stop offset="1" stop-color="#C6A9A9" stop-opacity="0"/>
</linearGradient>
<linearGradient id="paint9_linear_4_7" x1="326.888" y1="103.448" x2="324.88" y2="102.619" gradientUnits="userSpaceOnUse">
<stop stop-color="#C6A9A9"/>
<stop offset="0.5" stop-color="white" stop-opacity="0.28"/>
<stop offset="1" stop-color="#C6A9A9" stop-opacity="0"/>
</linearGradient>
<linearGradient id="paint10_linear_4_7" x1="351.456" y1="115.343" x2="347.366" y2="114.333" gradientUnits="userSpaceOnUse">
<stop stop-color="#C6A9A9"/>
<stop offset="0.5" stop-color="white" stop-opacity="0.28"/>
<stop offset="1" stop-color="#C6A9A9" stop-opacity="0"/>
</linearGradient>
<linearGradient id="paint11_linear_4_7" x1="229.521" y1="146.545" x2="227.37" y2="145.82" gradientUnits="userSpaceOnUse">
<stop stop-color="#C6A9A9"/>
<stop offset="0.5" stop-color="white" stop-opacity="0.28"/>
<stop offset="1" stop-color="#C6A9A9" stop-opacity="0"/>
</linearGradient>
<linearGradient id="paint12_linear_4_7" x1="226.647" y1="154.645" x2="219.881" y2="152.652" gradientUnits="userSpaceOnUse">
<stop stop-color="#C6A9A9"/>
<stop offset="0.5" stop-color="white" stop-opacity="0.28"/>
<stop offset="1" stop-color="#C6A9A9" stop-opacity="0"/>
</linearGradient>
<linearGradient id="paint13_linear_4_7" x1="57.1134" y1="151.784" x2="54.848" y2="151.244" gradientUnits="userSpaceOnUse">
<stop stop-color="#C6A9A9"/>
<stop offset="0.5" stop-color="white" stop-opacity="0.28"/>
<stop offset="1" stop-color="#C6A9A9" stop-opacity="0"/>
</linearGradient>
<linearGradient id="paint14_linear_4_7" x1="17.1382" y1="152.685" x2="13.7853" y2="151.789" gradientUnits="userSpaceOnUse">
<stop stop-color="#C6A9A9"/>
<stop offset="0.5" stop-color="white" stop-opacity="0.28"/>
<stop offset="1" stop-color="#C6A9A9" stop-opacity="0"/>
</linearGradient>
<linearGradient id="paint15_linear_4_7" x1="151.143" y1="153.178" x2="148.126" y2="151.744" gradientUnits="userSpaceOnUse">
<stop stop-color="#C6A9A9"/>
<stop offset="0.5" stop-color="white" stop-opacity="0.28"/>
<stop offset="1" stop-color="#C6A9A9" stop-opacity="0"/>
</linearGradient>
<linearGradient id="paint16_linear_4_7" x1="248.764" y1="158.371" x2="243.733" y2="157.097" gradientUnits="userSpaceOnUse">
<stop stop-color="#C6A9A9"/>
<stop offset="0.5" stop-color="white" stop-opacity="0.28"/>
<stop offset="1" stop-color="#C6A9A9" stop-opacity="0"/>
</linearGradient>
<linearGradient id="paint17_linear_4_7" x1="142.739" y1="159.307" x2="138.661" y2="158.284" gradientUnits="userSpaceOnUse">
<stop stop-color="#C6A9A9"/>
<stop offset="0.5" stop-color="white" stop-opacity="0.28"/>
<stop offset="1" stop-color="#C6A9A9" stop-opacity="0"/>
</linearGradient>
<linearGradient id="paint18_linear_4_7" x1="59.0681" y1="159.71" x2="55.8196" y2="158.74" gradientUnits="userSpaceOnUse">
<stop stop-color="#C6A9A9"/>
<stop offset="0.5" stop-color="white" stop-opacity="0.28"/>
<stop offset="1" stop-color="#C6A9A9" stop-opacity="0"/>
</linearGradient>
<linearGradient id="paint19_linear_4_7" x1="204.584" y1="170.008" x2="188.585" y2="165.363" gradientUnits="userSpaceOnUse">
<stop stop-color="#C6A9A9"/>
<stop offset="0.5" stop-color="white" stop-opacity="0.28"/>
<stop offset="1" stop-color="#C6A9A9" stop-opacity="0"/>
</linearGradient>
<linearGradient id="paint20_linear_4_7" x1="167.207" y1="166.04" x2="162.072" y2="164.517" gradientUnits="userSpaceOnUse">
<stop stop-color="#C6A9A9"/>
<stop offset="0.5" stop-color="white" stop-opacity="0.28"/>
<stop offset="1" stop-color="#C6A9A9" stop-opacity="0"/>
</linearGradient>
<linearGradient id="paint21_linear_4_7" x1="221.552" y1="168.1" x2="218.22" y2="167.095" gradientUnits="userSpaceOnUse">
<stop stop-color="#C6A9A9"/>
<stop offset="0.5" stop-color="white" stop-opacity="0.28"/>
<stop offset="1" stop-color="#C6A9A9" stop-opacity="0"/>
</linearGradient>
<linearGradient id="paint22_linear_4_7" x1="238.788" y1="170.49" x2="235.164" y2="169.539" gradientUnits="userSpaceOnUse">
<stop stop-color="#C6A9A9"/>
<stop offset="0.5" stop-color="white" stop-opacity="0.28"/>
<stop offset="1" stop-color="#C6A9A9" stop-opacity="0"/>
</linearGradient>
<linearGradient id="paint23_linear_4_7" x1="134.449" y1="175.286" x2="127.657" y2="173.573" gradientUnits="userSpaceOnUse">
<stop stop-color="#C6A9A9"/>
<stop offset="0.5" stop-color="white" stop-opacity="0.28"/>
<stop offset="1" stop-color="#C6A9A9" stop-opacity="0"/>
</linearGradient>
<linearGradient id="paint24_linear_4_7" x1="290.902" y1="174.578" x2="288.759" y2="174.007" gradientUnits="userSpaceOnUse">
<stop stop-color="#C6A9A9"/>
<stop offset="0.5" stop-color="white" stop-opacity="0.28"/>
<stop offset="1" stop-color="#C6A9A9" stop-opacity="0"/>
</linearGradient>
<linearGradient id="paint25_linear_4_7" x1="176.873" y1="179.923" x2="173.465" y2="178.995" gradientUnits="userSpaceOnUse">
<stop stop-color="#C6A9A9"/>
<stop offset="0.5" stop-color="white" stop-opacity="0.28"/>
<stop offset="1" stop-color="#C6A9A9" stop-opacity="0"/>
</linearGradient>
<linearGradient id="paint26_linear_4_7" x1="173.587" y1="189.898" x2="166.339" y2="188.216" gradientUnits="userSpaceOnUse">
<stop stop-color="#C6A9A9"/>
<stop offset="0.5" stop-color="white" stop-opacity="0.28"/>
<stop offset="1" stop-color="#C6A9A9" stop-opacity="0"/>
</linearGradient>
</defs>
</svg>
